# xmcd CD database file
#
# Track frame offsets:
#	150
#	56755
#	81280
#	115610
#	147660
#	173722
#	232242
#	261547
#
# Disc length: 4258 seconds
#
# Revision: 1
# Processed by: cddbd v1.5.2PL0 Copyright (c) Steve Scherf et al.
# Submitted via: CDex 1.51
#
DISCID=7710a008
DTITLE=Sun Ra and His Astro Infinity Arkestra - Pathways To Unknown Worlds and Friendly Love
DYEAR=1973
DGENRE=Jazz
TTITLE0=Pathways To Unknown Worlds
TTITLE1=Untitled
TTITLE2=Extension Out
TTITLE3=Cosmo-Media
TTITLE4=Friendly Love I
TTITLE5=Friendly Love II
TTITLE6=Friendly Love III
TTITLE7=Friendly Love IV
EXTD=YEAR: 1973
EXTT0=
EXTT1=
EXTT2=
EXTT3=
EXTT4=
EXTT5=
EXTT6=
EXTT7=
PLAYORDER=
